<svg width="496" height="644" viewBox="0 0 496 644" fill="none" xmlns="http://www.w3.org/2000/svg">
<path d="M200.498 310.316H209.138C210.866 310.316 212.21 310.636 213.17 311.276C214.13 311.895 214.845 312.738 215.314 313.804C215.805 314.85 216.103 316.066 216.21 317.452C216.317 318.818 216.37 320.247 216.37 321.74C216.37 323.234 216.317 324.674 216.21 326.06C216.103 327.426 215.805 328.642 215.314 329.708C214.845 330.754 214.13 331.596 213.17 332.236C212.21 332.855 210.866 333.164 209.138 333.164H200.498V310.316ZM206.45 328.876H207.634C208.21 328.876 208.669 328.802 209.01 328.652C209.351 328.482 209.607 328.14 209.778 327.628C209.97 327.116 210.087 326.391 210.13 325.452C210.194 324.514 210.226 323.276 210.226 321.74C210.226 320.204 210.194 318.967 210.13 318.028C210.087 317.09 209.97 316.364 209.778 315.852C209.607 315.34 209.351 315.01 209.01 314.86C208.669 314.69 208.21 314.604 207.634 314.604H206.45V328.876ZM218.873 310.316H232.409V315.18H224.825V319.084H231.929V323.756H224.825V328.3H232.697V333.164H218.873V310.316ZM243.769 316.908V316.364C243.769 315.682 243.63 315.106 243.353 314.636C243.076 314.146 242.649 313.9 242.073 313.9C241.433 313.9 240.964 314.114 240.665 314.54C240.366 314.946 240.217 315.404 240.217 315.916C240.217 316.663 240.452 317.26 240.921 317.708C241.412 318.135 242.02 318.508 242.745 318.828C243.47 319.148 244.249 319.479 245.081 319.82C245.913 320.14 246.692 320.567 247.417 321.1C248.142 321.634 248.74 322.338 249.209 323.212C249.7 324.066 249.945 325.186 249.945 326.572C249.945 329.004 249.252 330.775 247.865 331.884C246.478 332.972 244.473 333.516 241.849 333.516C240.612 333.516 239.513 333.41 238.553 333.196C237.614 333.004 236.814 332.663 236.153 332.172C235.513 331.66 235.022 330.999 234.681 330.188C234.34 329.378 234.169 328.375 234.169 327.18V326.38H239.929V326.924C239.929 327.906 240.11 328.599 240.473 329.004C240.836 329.388 241.305 329.58 241.881 329.58C242.5 329.58 242.969 329.367 243.289 328.94C243.63 328.514 243.801 327.991 243.801 327.372C243.801 326.626 243.566 326.039 243.097 325.612C242.649 325.164 242.073 324.791 241.369 324.492C240.686 324.172 239.94 323.852 239.129 323.532C238.318 323.212 237.561 322.796 236.857 322.284C236.174 321.772 235.598 321.1 235.129 320.268C234.681 319.436 234.457 318.348 234.457 317.004C234.457 314.679 235.076 312.908 236.313 311.692C237.55 310.476 239.428 309.868 241.945 309.868C244.548 309.868 246.425 310.434 247.577 311.564C248.75 312.674 249.337 314.455 249.337 316.908H243.769ZM251.836 310.316H257.788V333.164H251.836V310.316ZM268.053 320.748H275.733V333.164H271.701L271.573 331.148H271.509C271.317 331.639 271.04 332.044 270.677 332.364C270.336 332.684 269.941 332.93 269.493 333.1C269.066 333.25 268.597 333.356 268.085 333.42C267.594 333.484 267.093 333.516 266.581 333.516C265.066 333.516 263.872 333.271 262.997 332.78C262.122 332.268 261.461 331.511 261.013 330.508C260.565 329.506 260.277 328.268 260.149 326.796C260.042 325.324 259.989 323.639 259.989 321.74C259.989 319.82 260.096 318.124 260.309 316.652C260.544 315.18 260.97 313.943 261.589 312.94C262.229 311.938 263.104 311.18 264.213 310.668C265.322 310.135 266.752 309.868 268.501 309.868C269.546 309.868 270.506 310.007 271.381 310.284C272.277 310.562 273.045 311.01 273.685 311.628C274.325 312.247 274.826 313.047 275.189 314.028C275.552 314.988 275.733 316.162 275.733 317.548H269.973C269.973 316.332 269.866 315.447 269.653 314.892C269.44 314.231 268.981 313.9 268.277 313.9C267.786 313.9 267.392 314.018 267.093 314.252C266.816 314.487 266.602 314.903 266.453 315.5C266.325 316.098 266.24 316.908 266.197 317.932C266.154 318.935 266.133 320.204 266.133 321.74C266.133 323.276 266.154 324.556 266.197 325.58C266.24 326.583 266.325 327.383 266.453 327.98C266.602 328.578 266.805 328.994 267.061 329.228C267.338 329.463 267.701 329.58 268.149 329.58C268.469 329.58 268.746 329.516 268.981 329.388C269.237 329.26 269.45 329.026 269.621 328.684C269.792 328.322 269.92 327.831 270.005 327.212C270.112 326.572 270.165 325.762 270.165 324.78H268.053V320.748ZM278.154 310.316H284.81L288.65 324.396H288.714V310.316H294.282V333.164H287.754L283.786 319.052H283.722V333.164H278.154V310.316Z" fill="white"/>
<path d="M147.681 257.682C186.059 188.446 233.984 133.518 280.103 100.558C326.761 67.213 369.029 57.9518 398.098 74.065C427.167 90.1781 441.712 130.931 438.159 188.17C434.647 244.747 413.461 314.497 375.082 383.733C336.704 452.969 288.78 507.898 242.661 540.858C196.002 574.203 153.734 583.464 124.665 567.351C95.5965 551.237 81.0517 510.484 84.6047 453.246C88.1167 396.668 109.303 326.919 147.681 257.682Z" stroke="white" stroke-width="16"/>
</svg>
