<svg width="1300" height="723" viewBox="0 0 1300 723" fill="none" xmlns="http://www.w3.org/2000/svg">
<path d="M127.2 112.8H74.4V295.2H126.6V346.2H74.4V573H26.4V67.8H127.2V112.8ZM223.814 342.6V573H175.814V69.6H223.814V294.6H268.214V69.6H316.214V573H268.214V342.6H223.814ZM418.945 67.8V573H370.345V67.8H418.945Z" fill="white"/>
<path d="M936.4 67.8H989.2L926.8 320.4L989.2 573H936.4L902.8 433.2L869.2 573H816.4L878.2 321L816.4 67.8H869.2L902.8 210.6L936.4 67.8ZM1137.82 69.6L1192.42 573H1140.22L1130.02 480.6H1086.22L1077.22 573H1024.42L1080.82 69.6H1137.82ZM1125.22 436.8L1108.42 217.8L1091.02 436.8H1125.22ZM1281.1 531.6V573H1238.5V531.6H1281.1Z" fill="white"/>
<path d="M568.498 310.316H577.138C578.866 310.316 580.21 310.636 581.17 311.276C582.13 311.895 582.845 312.737 583.314 313.804C583.805 314.849 584.103 316.065 584.21 317.452C584.317 318.817 584.37 320.247 584.37 321.74C584.37 323.233 584.317 324.673 584.21 326.06C584.103 327.425 583.805 328.641 583.314 329.708C582.845 330.753 582.13 331.596 581.17 332.236C580.21 332.855 578.866 333.164 577.138 333.164H568.498V310.316ZM574.45 328.876H575.634C576.21 328.876 576.669 328.801 577.01 328.652C577.351 328.481 577.607 328.14 577.778 327.628C577.97 327.116 578.087 326.391 578.13 325.452C578.194 324.513 578.226 323.276 578.226 321.74C578.226 320.204 578.194 318.967 578.13 318.028C578.087 317.089 577.97 316.364 577.778 315.852C577.607 315.34 577.351 315.009 577.01 314.86C576.669 314.689 576.21 314.604 575.634 314.604H574.45V328.876ZM586.873 310.316H600.409V315.18H592.825V319.084H599.929V323.756H592.825V328.3H600.697V333.164H586.873V310.316ZM611.769 316.908V316.364C611.769 315.681 611.63 315.105 611.353 314.636C611.076 314.145 610.649 313.9 610.073 313.9C609.433 313.9 608.964 314.113 608.665 314.54C608.366 314.945 608.217 315.404 608.217 315.916C608.217 316.663 608.452 317.26 608.921 317.708C609.412 318.135 610.02 318.508 610.745 318.828C611.47 319.148 612.249 319.479 613.081 319.82C613.913 320.14 614.692 320.567 615.417 321.1C616.142 321.633 616.74 322.337 617.209 323.212C617.7 324.065 617.945 325.185 617.945 326.572C617.945 329.004 617.252 330.775 615.865 331.884C614.478 332.972 612.473 333.516 609.849 333.516C608.612 333.516 607.513 333.409 606.553 333.196C605.614 333.004 604.814 332.663 604.153 332.172C603.513 331.66 603.022 330.999 602.681 330.188C602.34 329.377 602.169 328.375 602.169 327.18V326.38H607.929V326.924C607.929 327.905 608.11 328.599 608.473 329.004C608.836 329.388 609.305 329.58 609.881 329.58C610.5 329.58 610.969 329.367 611.289 328.94C611.63 328.513 611.801 327.991 611.801 327.372C611.801 326.625 611.566 326.039 611.097 325.612C610.649 325.164 610.073 324.791 609.369 324.492C608.686 324.172 607.94 323.852 607.129 323.532C606.318 323.212 605.561 322.796 604.857 322.284C604.174 321.772 603.598 321.1 603.129 320.268C602.681 319.436 602.457 318.348 602.457 317.004C602.457 314.679 603.076 312.908 604.313 311.692C605.55 310.476 607.428 309.868 609.945 309.868C612.548 309.868 614.425 310.433 615.577 311.564C616.75 312.673 617.337 314.455 617.337 316.908H611.769ZM619.836 310.316H625.788V333.164H619.836V310.316ZM636.053 320.748H643.733V333.164H639.701L639.573 331.148H639.509C639.317 331.639 639.04 332.044 638.677 332.364C638.336 332.684 637.941 332.929 637.493 333.1C637.066 333.249 636.597 333.356 636.085 333.42C635.594 333.484 635.093 333.516 634.581 333.516C633.066 333.516 631.872 333.271 630.997 332.78C630.122 332.268 629.461 331.511 629.013 330.508C628.565 329.505 628.277 328.268 628.149 326.796C628.042 325.324 627.989 323.639 627.989 321.74C627.989 319.82 628.096 318.124 628.309 316.652C628.544 315.18 628.97 313.943 629.589 312.94C630.229 311.937 631.104 311.18 632.213 310.668C633.322 310.135 634.752 309.868 636.501 309.868C637.546 309.868 638.506 310.007 639.381 310.284C640.277 310.561 641.045 311.009 641.685 311.628C642.325 312.247 642.826 313.047 643.189 314.028C643.552 314.988 643.733 316.161 643.733 317.548H637.973C637.973 316.332 637.866 315.447 637.653 314.892C637.44 314.231 636.981 313.9 636.277 313.9C635.786 313.9 635.392 314.017 635.093 314.252C634.816 314.487 634.602 314.903 634.453 315.5C634.325 316.097 634.24 316.908 634.197 317.932C634.154 318.935 634.133 320.204 634.133 321.74C634.133 323.276 634.154 324.556 634.197 325.58C634.24 326.583 634.325 327.383 634.453 327.98C634.602 328.577 634.805 328.993 635.061 329.228C635.338 329.463 635.701 329.58 636.149 329.58C636.469 329.58 636.746 329.516 636.981 329.388C637.237 329.26 637.45 329.025 637.621 328.684C637.792 328.321 637.92 327.831 638.005 327.212C638.112 326.572 638.165 325.761 638.165 324.78H636.053V320.748ZM646.154 310.316H652.81L656.65 324.396H656.714V310.316H662.282V333.164H655.754L651.786 319.052H651.722V333.164H646.154V310.316Z" fill="white"/>
<path d="M515.681 257.682C554.059 188.446 601.984 133.517 648.103 100.558C694.761 67.2127 737.029 57.9516 766.098 74.0647C795.167 90.1778 809.712 130.931 806.159 188.17C802.647 244.747 781.461 314.496 743.082 383.733C704.704 452.969 656.78 507.898 610.661 540.857C564.002 574.202 521.734 583.463 492.665 567.35C463.596 551.237 449.052 510.484 452.605 453.245C456.117 396.668 477.303 326.919 515.681 257.682Z" stroke="white" stroke-width="16"/>
</svg>
